# xmcd
#
# Track frame offsets: 
#        150
#        7774
#        27102
#        53307
#        71904
#        76087
#        95570
#        99215
#        120115
#        139352
#        157569
#        175611
#        194707
#        212073
#        233631
#        250625
#        273189
#        276816
#        299767
#        323898
#
# Disc length: 4708 seconds
#
# Revision: 2
# Processed by: cddbd v1.5.2PL0 Copyright (c) Steve Scherf et al.
# Submitted via: ExactAudioCopy v0.95b4
#
DISCID=00126214
DTITLE=Christina Aguilera - Stripped
DYEAR=1900
DGENRE=Pop
TTITLE0=Stripped intro
TTITLE1=Can't hold us down(featuring Lif Kim)
TTITLE2=Walk away
TTITLE3=Fighter
TTITLE4=Primer amar jaterlude
TTITLE5=Lares embrace
TTITLE6=Infatuation
TTITLE7=Loving me 4 me
TTITLE8=Impossible
TTITLE9=Underapprecciated
TTITLE10=Beautiful
TTITLE11=Make over
TTITLE12=Cruz
TTITLE13=Soar
TTITLE14=Get mine get yours
TTITLE15=Dirrty(featuring Rademan)
TTITLE16=Stripped pt2
TTITLE17=The voice within
TTITLE18=I'm ok
TTITLE19=Keep on singing my song
EXTD=
EXTT0=
EXTT1=
EXTT2=
EXTT3=
EXTT4=
EXTT5=
EXTT6=
EXTT7=
EXTT8=
EXTT9=
EXTT10=
EXTT11=
EXTT12=
EXTT13=
EXTT14=
EXTT15=
EXTT16=
EXTT17=
EXTT18=
EXTT19=
PLAYORDER=
